<mxfile host="app.diagrams.net" modified="2023-10-08T09:27:03.022Z" agent="Mozilla/5.0 (Windows NT 10.0; Win64; x64) AppleWebKit/537.36 (KHTML, like Gecko) Chrome/117.0.0.0 Safari/537.36" etag="GhZ1htS3erFYX0TCyhf8" version="22.0.4" type="github">
  <diagram name="Страница — 1" id="qRYNM-USd5ed1iqxNkwS">
    <mxGraphModel dx="2336" dy="823" grid="1" gridSize="10" guides="1" tooltips="1" connect="1" arrows="1" fold="1" page="1" pageScale="1" pageWidth="827" pageHeight="1169" math="0" shadow="0">
      <root>
        <mxCell id="0" />
        <mxCell id="1" parent="0" />
        <mxCell id="7rc91nL-VFAPRELUF8Jk-1" value="Клиент&lt;br&gt;" style="shape=umlActor;verticalLabelPosition=bottom;verticalAlign=top;html=1;outlineConnect=0;" vertex="1" parent="1">
          <mxGeometry x="810" y="130" width="30" height="60" as="geometry" />
        </mxCell>
        <mxCell id="7rc91nL-VFAPRELUF8Jk-2" value="" style="rounded=0;whiteSpace=wrap;html=1;movable=0;resizable=0;rotatable=0;deletable=0;editable=0;locked=1;connectable=0;" vertex="1" parent="1">
          <mxGeometry x="-60" y="50" width="760" height="750" as="geometry" />
        </mxCell>
        <mxCell id="7rc91nL-VFAPRELUF8Jk-3" value="" style="ellipse;whiteSpace=wrap;html=1;" vertex="1" parent="1">
          <mxGeometry x="520" y="90" width="120" height="80" as="geometry" />
        </mxCell>
        <mxCell id="7rc91nL-VFAPRELUF8Jk-11" value="Получить информацию о товаре" style="text;html=1;strokeColor=none;fillColor=none;align=center;verticalAlign=middle;whiteSpace=wrap;rounded=0;" vertex="1" parent="1">
          <mxGeometry x="550" y="115" width="60" height="30" as="geometry" />
        </mxCell>
        <mxCell id="7rc91nL-VFAPRELUF8Jk-12" value="" style="endArrow=none;html=1;rounded=0;" edge="1" parent="1" target="7rc91nL-VFAPRELUF8Jk-1">
          <mxGeometry width="50" height="50" relative="1" as="geometry">
            <mxPoint x="640" y="140" as="sourcePoint" />
            <mxPoint x="690" y="90" as="targetPoint" />
          </mxGeometry>
        </mxCell>
        <mxCell id="7rc91nL-VFAPRELUF8Jk-15" value="" style="endArrow=none;html=1;rounded=0;entryX=0;entryY=1;entryDx=0;entryDy=0;entryPerimeter=0;" edge="1" parent="1" target="7rc91nL-VFAPRELUF8Jk-1">
          <mxGeometry width="50" height="50" relative="1" as="geometry">
            <mxPoint x="640" y="230" as="sourcePoint" />
            <mxPoint x="680" y="310" as="targetPoint" />
          </mxGeometry>
        </mxCell>
        <mxCell id="7rc91nL-VFAPRELUF8Jk-16" value="Поставщик&lt;br&gt;" style="shape=umlActor;verticalLabelPosition=bottom;verticalAlign=top;html=1;outlineConnect=0;" vertex="1" parent="1">
          <mxGeometry x="810" y="340" width="30" height="60" as="geometry" />
        </mxCell>
        <mxCell id="7rc91nL-VFAPRELUF8Jk-17" value="" style="group" vertex="1" connectable="0" parent="1">
          <mxGeometry x="520" y="190" width="120" height="80" as="geometry" />
        </mxCell>
        <mxCell id="7rc91nL-VFAPRELUF8Jk-14" value="" style="ellipse;whiteSpace=wrap;html=1;" vertex="1" parent="7rc91nL-VFAPRELUF8Jk-17">
          <mxGeometry width="120" height="80" as="geometry" />
        </mxCell>
        <mxCell id="7rc91nL-VFAPRELUF8Jk-13" value="Купить товар" style="text;html=1;strokeColor=none;fillColor=none;align=center;verticalAlign=middle;whiteSpace=wrap;rounded=0;" vertex="1" parent="7rc91nL-VFAPRELUF8Jk-17">
          <mxGeometry x="30" y="25" width="60" height="30" as="geometry" />
        </mxCell>
        <mxCell id="7rc91nL-VFAPRELUF8Jk-21" value="" style="group" vertex="1" connectable="0" parent="1">
          <mxGeometry x="530" y="340" width="120" height="80" as="geometry" />
        </mxCell>
        <mxCell id="7rc91nL-VFAPRELUF8Jk-22" value="" style="ellipse;whiteSpace=wrap;html=1;" vertex="1" parent="7rc91nL-VFAPRELUF8Jk-21">
          <mxGeometry width="120" height="80" as="geometry" />
        </mxCell>
        <mxCell id="7rc91nL-VFAPRELUF8Jk-23" value="Поставить товар" style="text;html=1;strokeColor=none;fillColor=none;align=center;verticalAlign=middle;whiteSpace=wrap;rounded=0;" vertex="1" parent="7rc91nL-VFAPRELUF8Jk-21">
          <mxGeometry x="30" y="25" width="60" height="30" as="geometry" />
        </mxCell>
        <mxCell id="7rc91nL-VFAPRELUF8Jk-25" value="" style="ellipse;whiteSpace=wrap;html=1;" vertex="1" parent="1">
          <mxGeometry x="380" y="270" width="120" height="80" as="geometry" />
        </mxCell>
        <mxCell id="7rc91nL-VFAPRELUF8Jk-26" value="Провести оплату" style="text;html=1;strokeColor=none;fillColor=none;align=center;verticalAlign=middle;whiteSpace=wrap;rounded=0;" vertex="1" parent="1">
          <mxGeometry x="410" y="295" width="60" height="30" as="geometry" />
        </mxCell>
        <mxCell id="7rc91nL-VFAPRELUF8Jk-27" value="" style="endArrow=classic;html=1;rounded=0;" edge="1" parent="1">
          <mxGeometry width="50" height="50" relative="1" as="geometry">
            <mxPoint x="490" y="290" as="sourcePoint" />
            <mxPoint x="530" y="250" as="targetPoint" />
          </mxGeometry>
        </mxCell>
        <mxCell id="7rc91nL-VFAPRELUF8Jk-28" value="" style="endArrow=none;html=1;rounded=0;" edge="1" parent="1" target="7rc91nL-VFAPRELUF8Jk-16">
          <mxGeometry width="50" height="50" relative="1" as="geometry">
            <mxPoint x="650" y="390" as="sourcePoint" />
            <mxPoint x="700" y="340" as="targetPoint" />
          </mxGeometry>
        </mxCell>
        <mxCell id="7rc91nL-VFAPRELUF8Jk-29" value="Заведующий магазином" style="shape=umlActor;verticalLabelPosition=bottom;verticalAlign=top;html=1;outlineConnect=0;" vertex="1" parent="1">
          <mxGeometry x="760" y="530" width="30" height="60" as="geometry" />
        </mxCell>
        <mxCell id="7rc91nL-VFAPRELUF8Jk-30" value="Заведующий &lt;br&gt;складом" style="shape=umlActor;verticalLabelPosition=bottom;verticalAlign=top;html=1;outlineConnect=0;" vertex="1" parent="1">
          <mxGeometry x="-140" y="85" width="30" height="60" as="geometry" />
        </mxCell>
        <mxCell id="7rc91nL-VFAPRELUF8Jk-33" value="" style="group" vertex="1" connectable="0" parent="1">
          <mxGeometry x="530" y="470" width="120" height="80" as="geometry" />
        </mxCell>
        <mxCell id="7rc91nL-VFAPRELUF8Jk-34" value="" style="ellipse;whiteSpace=wrap;html=1;" vertex="1" parent="7rc91nL-VFAPRELUF8Jk-33">
          <mxGeometry width="120" height="80" as="geometry" />
        </mxCell>
        <mxCell id="7rc91nL-VFAPRELUF8Jk-35" value="Заказать товар со склада" style="text;html=1;strokeColor=none;fillColor=none;align=center;verticalAlign=middle;whiteSpace=wrap;rounded=0;" vertex="1" parent="7rc91nL-VFAPRELUF8Jk-33">
          <mxGeometry x="30" y="25" width="60" height="30" as="geometry" />
        </mxCell>
        <mxCell id="7rc91nL-VFAPRELUF8Jk-36" value="" style="endArrow=none;html=1;rounded=0;" edge="1" parent="1" target="7rc91nL-VFAPRELUF8Jk-29">
          <mxGeometry width="50" height="50" relative="1" as="geometry">
            <mxPoint x="650" y="530" as="sourcePoint" />
            <mxPoint x="700" y="535" as="targetPoint" />
          </mxGeometry>
        </mxCell>
        <mxCell id="7rc91nL-VFAPRELUF8Jk-38" value="" style="ellipse;whiteSpace=wrap;html=1;" vertex="1" parent="1">
          <mxGeometry x="20" y="75" width="120" height="80" as="geometry" />
        </mxCell>
        <mxCell id="7rc91nL-VFAPRELUF8Jk-37" value="Предоставить информацию о товаре" style="text;html=1;strokeColor=none;fillColor=none;align=center;verticalAlign=middle;whiteSpace=wrap;rounded=0;" vertex="1" parent="1">
          <mxGeometry x="50" y="100" width="60" height="30" as="geometry" />
        </mxCell>
        <mxCell id="7rc91nL-VFAPRELUF8Jk-39" value="" style="endArrow=none;html=1;rounded=0;" edge="1" parent="1" source="7rc91nL-VFAPRELUF8Jk-30" target="7rc91nL-VFAPRELUF8Jk-38">
          <mxGeometry width="50" height="50" relative="1" as="geometry">
            <mxPoint x="-110" y="215" as="sourcePoint" />
            <mxPoint x="-60" y="165" as="targetPoint" />
          </mxGeometry>
        </mxCell>
        <mxCell id="7rc91nL-VFAPRELUF8Jk-42" value="" style="ellipse;whiteSpace=wrap;html=1;" vertex="1" parent="1">
          <mxGeometry x="20" y="160" width="120" height="80" as="geometry" />
        </mxCell>
        <mxCell id="7rc91nL-VFAPRELUF8Jk-41" value="Заказать товар у поставщика" style="text;html=1;strokeColor=none;fillColor=none;align=center;verticalAlign=middle;whiteSpace=wrap;rounded=0;" vertex="1" parent="1">
          <mxGeometry x="50" y="185" width="60" height="30" as="geometry" />
        </mxCell>
        <mxCell id="7rc91nL-VFAPRELUF8Jk-43" value="" style="endArrow=none;html=1;rounded=0;entryX=0;entryY=0.5;entryDx=0;entryDy=0;exitX=1;exitY=1;exitDx=0;exitDy=0;exitPerimeter=0;" edge="1" parent="1" source="7rc91nL-VFAPRELUF8Jk-30" target="7rc91nL-VFAPRELUF8Jk-42">
          <mxGeometry width="50" height="50" relative="1" as="geometry">
            <mxPoint x="-110" y="200" as="sourcePoint" />
            <mxPoint x="-120" y="280" as="targetPoint" />
          </mxGeometry>
        </mxCell>
        <mxCell id="7rc91nL-VFAPRELUF8Jk-44" value="Управляющий &lt;br&gt;сетью магазинов" style="shape=umlActor;verticalLabelPosition=bottom;verticalAlign=top;html=1;outlineConnect=0;" vertex="1" parent="1">
          <mxGeometry x="-150" y="390" width="30" height="60" as="geometry" />
        </mxCell>
        <mxCell id="7rc91nL-VFAPRELUF8Jk-48" value="" style="ellipse;whiteSpace=wrap;html=1;" vertex="1" parent="1">
          <mxGeometry x="-10" y="400" width="120" height="80" as="geometry" />
        </mxCell>
        <mxCell id="7rc91nL-VFAPRELUF8Jk-47" value="Управление сетью магазинов" style="text;html=1;strokeColor=none;fillColor=none;align=center;verticalAlign=middle;whiteSpace=wrap;rounded=0;" vertex="1" parent="1">
          <mxGeometry x="20" y="425" width="60" height="30" as="geometry" />
        </mxCell>
        <mxCell id="7rc91nL-VFAPRELUF8Jk-50" value="" style="ellipse;whiteSpace=wrap;html=1;" vertex="1" parent="1">
          <mxGeometry x="120" y="300" width="120" height="80" as="geometry" />
        </mxCell>
        <mxCell id="7rc91nL-VFAPRELUF8Jk-49" value="Контроль за выполнением планов продаж" style="text;html=1;strokeColor=none;fillColor=none;align=center;verticalAlign=middle;whiteSpace=wrap;rounded=0;" vertex="1" parent="1">
          <mxGeometry x="150" y="325" width="60" height="30" as="geometry" />
        </mxCell>
        <mxCell id="7rc91nL-VFAPRELUF8Jk-53" value="" style="endArrow=none;dashed=1;html=1;rounded=0;entryX=0.033;entryY=0.713;entryDx=0;entryDy=0;entryPerimeter=0;" edge="1" parent="1" target="7rc91nL-VFAPRELUF8Jk-50">
          <mxGeometry width="50" height="50" relative="1" as="geometry">
            <mxPoint x="90" y="410" as="sourcePoint" />
            <mxPoint x="140" y="360" as="targetPoint" />
          </mxGeometry>
        </mxCell>
        <mxCell id="7rc91nL-VFAPRELUF8Jk-54" value="Include" style="text;html=1;strokeColor=none;fillColor=none;align=center;verticalAlign=middle;whiteSpace=wrap;rounded=0;rotation=-55;" vertex="1" parent="1">
          <mxGeometry x="70" y="360" width="60" height="30" as="geometry" />
        </mxCell>
        <mxCell id="7rc91nL-VFAPRELUF8Jk-56" value="" style="endArrow=none;html=1;rounded=0;entryX=0;entryY=0.5;entryDx=0;entryDy=0;" edge="1" parent="1" target="7rc91nL-VFAPRELUF8Jk-48">
          <mxGeometry width="50" height="50" relative="1" as="geometry">
            <mxPoint x="-120" y="430" as="sourcePoint" />
            <mxPoint x="-70" y="380" as="targetPoint" />
          </mxGeometry>
        </mxCell>
        <mxCell id="7rc91nL-VFAPRELUF8Jk-60" value="Extend" style="text;html=1;strokeColor=none;fillColor=none;align=center;verticalAlign=middle;whiteSpace=wrap;rounded=0;rotation=15;" vertex="1" parent="1">
          <mxGeometry x="270" y="450" width="55.66" height="32.46" as="geometry" />
        </mxCell>
        <mxCell id="7rc91nL-VFAPRELUF8Jk-62" value="" style="ellipse;whiteSpace=wrap;html=1;" vertex="1" parent="1">
          <mxGeometry x="150" y="420" width="120" height="80" as="geometry" />
        </mxCell>
        <mxCell id="7rc91nL-VFAPRELUF8Jk-61" value="Курирование и развитие розничной сети" style="text;html=1;strokeColor=none;fillColor=none;align=center;verticalAlign=middle;whiteSpace=wrap;rounded=0;" vertex="1" parent="1">
          <mxGeometry x="180" y="445" width="60" height="30" as="geometry" />
        </mxCell>
        <mxCell id="7rc91nL-VFAPRELUF8Jk-65" value="" style="endArrow=none;dashed=1;html=1;rounded=0;entryX=0;entryY=0.5;entryDx=0;entryDy=0;" edge="1" parent="1" target="7rc91nL-VFAPRELUF8Jk-62">
          <mxGeometry width="50" height="50" relative="1" as="geometry">
            <mxPoint x="110" y="445" as="sourcePoint" />
            <mxPoint x="160" y="395" as="targetPoint" />
          </mxGeometry>
        </mxCell>
        <mxCell id="7rc91nL-VFAPRELUF8Jk-68" value="" style="ellipse;whiteSpace=wrap;html=1;" vertex="1" parent="1">
          <mxGeometry x="310" y="160" width="120" height="80" as="geometry" />
        </mxCell>
        <mxCell id="7rc91nL-VFAPRELUF8Jk-67" value="Выбрать тип оплаты" style="text;html=1;strokeColor=none;fillColor=none;align=center;verticalAlign=middle;whiteSpace=wrap;rounded=0;" vertex="1" parent="1">
          <mxGeometry x="340" y="185" width="60" height="30" as="geometry" />
        </mxCell>
        <mxCell id="7rc91nL-VFAPRELUF8Jk-69" value="" style="endArrow=none;dashed=1;html=1;rounded=0;exitX=0.573;exitY=0.976;exitDx=0;exitDy=0;exitPerimeter=0;" edge="1" parent="1" source="7rc91nL-VFAPRELUF8Jk-68">
          <mxGeometry width="50" height="50" relative="1" as="geometry">
            <mxPoint x="380" y="250" as="sourcePoint" />
            <mxPoint x="420" y="270" as="targetPoint" />
          </mxGeometry>
        </mxCell>
        <mxCell id="7rc91nL-VFAPRELUF8Jk-71" value="" style="shape=umlActor;verticalLabelPosition=bottom;verticalAlign=top;html=1;outlineConnect=0;" vertex="1" parent="1">
          <mxGeometry x="-150" y="610" width="30" height="60" as="geometry" />
        </mxCell>
        <mxCell id="7rc91nL-VFAPRELUF8Jk-73" value="" style="ellipse;whiteSpace=wrap;html=1;" vertex="1" parent="1">
          <mxGeometry y="597.5" width="110" height="82.5" as="geometry" />
        </mxCell>
        <mxCell id="7rc91nL-VFAPRELUF8Jk-74" value="Маректолог" style="text;html=1;align=center;verticalAlign=middle;resizable=0;points=[];autosize=1;strokeColor=none;fillColor=none;" vertex="1" parent="1">
          <mxGeometry x="-180" y="660" width="90" height="30" as="geometry" />
        </mxCell>
        <mxCell id="7rc91nL-VFAPRELUF8Jk-75" value="" style="endArrow=none;html=1;rounded=0;" edge="1" parent="1">
          <mxGeometry width="50" height="50" relative="1" as="geometry">
            <mxPoint x="-120" y="645" as="sourcePoint" />
            <mxPoint y="640" as="targetPoint" />
          </mxGeometry>
        </mxCell>
        <mxCell id="7rc91nL-VFAPRELUF8Jk-72" value="Продвижение и реклама товаров и услуг" style="text;html=1;strokeColor=none;fillColor=none;align=center;verticalAlign=middle;whiteSpace=wrap;rounded=0;" vertex="1" parent="1">
          <mxGeometry x="25" y="623.75" width="60" height="30" as="geometry" />
        </mxCell>
        <mxCell id="7rc91nL-VFAPRELUF8Jk-83" value="" style="endArrow=none;dashed=1;html=1;rounded=0;" edge="1" parent="1">
          <mxGeometry width="50" height="50" relative="1" as="geometry">
            <mxPoint x="270" y="470" as="sourcePoint" />
            <mxPoint x="330" y="490" as="targetPoint" />
          </mxGeometry>
        </mxCell>
        <mxCell id="7rc91nL-VFAPRELUF8Jk-86" value="" style="ellipse;whiteSpace=wrap;html=1;" vertex="1" parent="1">
          <mxGeometry x="316.66" y="460" width="83.34" height="50" as="geometry" />
        </mxCell>
        <mxCell id="7rc91nL-VFAPRELUF8Jk-85" value="Выезд в магазин" style="text;html=1;strokeColor=none;fillColor=none;align=center;verticalAlign=middle;whiteSpace=wrap;rounded=0;" vertex="1" parent="1">
          <mxGeometry x="329" y="470" width="64.34" height="30" as="geometry" />
        </mxCell>
        <mxCell id="7rc91nL-VFAPRELUF8Jk-87" value="Include" style="text;html=1;strokeColor=none;fillColor=none;align=center;verticalAlign=middle;whiteSpace=wrap;rounded=0;rotation=0;" vertex="1" parent="1">
          <mxGeometry x="120" y="616.4300000000001" width="50" height="37.32" as="geometry" />
        </mxCell>
        <mxCell id="7rc91nL-VFAPRELUF8Jk-88" value="Include" style="text;html=1;strokeColor=none;fillColor=none;align=center;verticalAlign=middle;whiteSpace=wrap;rounded=0;rotation=45;" vertex="1" parent="1">
          <mxGeometry x="388.34" y="240" width="60" height="30" as="geometry" />
        </mxCell>
        <mxCell id="7rc91nL-VFAPRELUF8Jk-90" value="" style="ellipse;whiteSpace=wrap;html=1;" vertex="1" parent="1">
          <mxGeometry x="190" y="610" width="120" height="80" as="geometry" />
        </mxCell>
        <mxCell id="7rc91nL-VFAPRELUF8Jk-89" value="Выбор рекламной платформы" style="text;html=1;strokeColor=none;fillColor=none;align=center;verticalAlign=middle;whiteSpace=wrap;rounded=0;" vertex="1" parent="1">
          <mxGeometry x="201.67000000000002" y="626.88" width="96.66" height="46.25" as="geometry" />
        </mxCell>
        <mxCell id="7rc91nL-VFAPRELUF8Jk-92" value="" style="endArrow=none;dashed=1;html=1;rounded=0;" edge="1" parent="1">
          <mxGeometry width="50" height="50" relative="1" as="geometry">
            <mxPoint x="110" y="647.5" as="sourcePoint" />
            <mxPoint x="190" y="648" as="targetPoint" />
          </mxGeometry>
        </mxCell>
        <mxCell id="7rc91nL-VFAPRELUF8Jk-93" value="Include" style="text;html=1;strokeColor=none;fillColor=none;align=center;verticalAlign=middle;whiteSpace=wrap;rounded=0;rotation=30;" vertex="1" parent="1">
          <mxGeometry x="110" y="412.68000000000006" width="50" height="37.32" as="geometry" />
        </mxCell>
        <mxCell id="7rc91nL-VFAPRELUF8Jk-94" value="Выезд в магазин" style="text;html=1;strokeColor=none;fillColor=none;align=center;verticalAlign=middle;whiteSpace=wrap;rounded=0;" vertex="1" parent="1">
          <mxGeometry x="399" y="670" width="64.34" height="30" as="geometry" />
        </mxCell>
        <mxCell id="7rc91nL-VFAPRELUF8Jk-95" value="Extend" style="text;html=1;strokeColor=none;fillColor=none;align=center;verticalAlign=middle;whiteSpace=wrap;rounded=0;rotation=15;" vertex="1" parent="1">
          <mxGeometry x="344.34" y="657.54" width="55.66" height="32.46" as="geometry" />
        </mxCell>
        <mxCell id="7rc91nL-VFAPRELUF8Jk-96" value="" style="ellipse;whiteSpace=wrap;html=1;" vertex="1" parent="1">
          <mxGeometry x="393.34" y="660" width="100" height="70" as="geometry" />
        </mxCell>
        <mxCell id="7rc91nL-VFAPRELUF8Jk-97" value="Реклама через блогеров" style="text;html=1;strokeColor=none;fillColor=none;align=center;verticalAlign=middle;whiteSpace=wrap;rounded=0;" vertex="1" parent="1">
          <mxGeometry x="411.34" y="680" width="64.34" height="30" as="geometry" />
        </mxCell>
        <mxCell id="7rc91nL-VFAPRELUF8Jk-98" value="" style="endArrow=none;dashed=1;html=1;rounded=0;entryX=1;entryY=0.75;entryDx=0;entryDy=0;" edge="1" parent="1" target="7rc91nL-VFAPRELUF8Jk-95">
          <mxGeometry width="50" height="50" relative="1" as="geometry">
            <mxPoint x="310" y="653.75" as="sourcePoint" />
            <mxPoint x="360" y="603.75" as="targetPoint" />
          </mxGeometry>
        </mxCell>
      </root>
    </mxGraphModel>
  </diagram>
</mxfile>
